999
Generated by Autodesk CAM - http://cam.autodesk.com
0
SECTION
2
HEADER
9
$ACADVER
1
AC1006
9
$ANGBASE
50
0
9
$ANGDIR
70
0
0
ENDSEC
0
SECTION
2
BLOCKS
0
ENDSEC
9
$EXTMIN
10
-38.5
20
-132.5
30
0
9
$EXTMAX
10
38.5
20
132.5
30
15
0
SECTION
2
ENTITIES
0
LINE
8
1
62
3
10
-38.5
20
21.389
30
15
11
-38.5
21
21.389
31
15
0
LINE
8
1
62
3
10
-38.5
20
21.389
30
15
11
-38.5
21
21.389
31
0
0
LINE
8
1
62
2
10
-38.5
20
21.389
30
0
11
-38.5
21
21.389
31
0
0
LINE
8
1
62
1
10
-38.5
20
21.389
30
0
11
-32.5
21
21.389
31
0
0
LINE
8
1
62
1
10
-32.5
20
21.389
30
0
11
-32.5
21
43.611
31
0
0
LINE
8
1
62
1
10
-32.5
20
43.611
30
0
11
-38.5
21
43.611
31
0
0
LINE
8
1
62
1
10
-38.5
20
43.611
30
0
11
-38.5
21
65.833
31
0
0
LINE
8
1
62
1
10
-38.5
20
65.833
30
0
11
-32.5
21
65.833
31
0
0
LINE
8
1
62
1
10
-32.5
20
65.833
30
0
11
-32.5
21
88.056
31
0
0
LINE
8
1
62
1
10
-32.5
20
88.056
30
0
11
-38.5
21
88.056
31
0
0
LINE
8
1
62
1
10
-38.5
20
88.056
30
0
11
-38.5
21
110.278
31
0
0
LINE
8
1
62
1
10
-38.5
20
110.278
30
0
11
-32.5
21
110.278
31
0
0
LINE
8
1
62
1
10
-32.5
20
110.278
30
0
11
-32.5
21
132.5
31
0
0
LINE
8
1
62
1
10
-32.5
20
132.5
30
0
11
32.5
21
132.5
31
0
0
LINE
8
1
62
1
10
32.5
20
132.5
30
0
11
32.5
21
110.278
31
0
0
LINE
8
1
62
1
10
32.5
20
110.278
30
0
11
38.5
21
110.278
31
0
0
LINE
8
1
62
1
10
38.5
20
110.278
30
0
11
38.5
21
88.056
31
0
0
LINE
8
1
62
1
10
38.5
20
88.056
30
0
11
32.5
21
88.056
31
0
0
LINE
8
1
62
1
10
32.5
20
88.056
30
0
11
32.5
21
65.833
31
0
0
LINE
8
1
62
1
10
32.5
20
65.833
30
0
11
38.5
21
65.833
31
0
0
LINE
8
1
62
1
10
38.5
20
65.833
30
0
11
38.5
21
43.611
31
0
0
LINE
8
1
62
1
10
38.5
20
43.611
30
0
11
32.5
21
43.611
31
0
0
LINE
8
1
62
1
10
32.5
20
43.611
30
0
11
32.5
21
21.389
31
0
0
LINE
8
1
62
1
10
32.5
20
21.389
30
0
11
38.5
21
21.389
31
0
0
LINE
8
1
62
1
10
38.5
20
21.389
30
0
11
38.5
21
-0.833
31
0
0
LINE
8
1
62
1
10
38.5
20
-0.833
30
0
11
32.5
21
-0.833
31
0
0
LINE
8
1
62
1
10
32.5
20
-0.833
30
0
11
32.5
21
-23.056
31
0
0
LINE
8
1
62
1
10
32.5
20
-23.056
30
0
11
38.5
21
-23.056
31
0
0
LINE
8
1
62
1
10
38.5
20
-23.056
30
0
11
38.5
21
-45.278
31
0
0
LINE
8
1
62
1
10
38.5
20
-45.278
30
0
11
32.5
21
-45.278
31
0
0
LINE
8
1
62
1
10
32.5
20
-45.278
30
0
11
32.5
21
-67.5
31
0
0
LINE
8
1
62
1
10
32.5
20
-67.5
30
0
11
38.5
21
-67.5
31
0
0
LINE
8
1
62
1
10
38.5
20
-67.5
30
0
11
38.5
21
-89.722
31
0
0
LINE
8
1
62
1
10
38.5
20
-89.722
30
0
11
32.5
21
-89.722
31
0
0
LINE
8
1
62
1
10
32.5
20
-89.722
30
0
11
32.5
21
-111.944
31
0
0
LINE
8
1
62
1
10
32.5
20
-111.944
30
0
11
38.5
21
-111.944
31
0
0
LINE
8
1
62
1
10
38.5
20
-111.944
30
0
11
38.5
21
-132.5
31
0
0
LINE
8
1
62
1
10
38.5
20
-132.5
30
0
11
32.5
21
-132.5
31
0
0
LINE
8
1
62
1
10
32.5
20
-132.5
30
0
11
-32.5
21
-67.5
31
0
0
LINE
8
1
62
1
10
-32.5
20
-67.5
30
0
11
-32.5
21
-45.278
31
0
0
LINE
8
1
62
1
10
-32.5
20
-45.278
30
0
11
-38.5
21
-45.278
31
0
0
LINE
8
1
62
1
10
-38.5
20
-45.278
30
0
11
-38.5
21
-23.056
31
0
0
LINE
8
1
62
1
10
-38.5
20
-23.056
30
0
11
-32.5
21
-23.056
31
0
0
LINE
8
1
62
1
10
-32.5
20
-23.056
30
0
11
-32.5
21
-0.833
31
0
0
LINE
8
1
62
1
10
-32.5
20
-0.833
30
0
11
-38.5
21
-0.833
31
0
0
LINE
8
1
62
1
10
-38.5
20
-0.833
30
0
11
-38.5
21
21.389
31
0
0
LINE
8
1
62
2
10
-38.5
20
21.389
30
0
11
-38.5
21
21.389
31
0
0
LINE
8
1
62
3
10
-38.5
20
21.389
30
0
11
-38.5
21
21.389
31
15
0
ENDSEC
0
EOF
