999
Generated by Autodesk CAM - http://cam.autodesk.com
0
SECTION
2
HEADER
9
$ACADVER
1
AC1006
9
$ANGBASE
50
0
9
$ANGDIR
70
0
0
ENDSEC
0
SECTION
2
BLOCKS
0
ENDSEC
9
$EXTMIN
10
0
20
-2.5
30
0
9
$EXTMAX
10
238.5
20
203.5
30
15
0
SECTION
2
ENTITIES
0
LINE
8
1
62
3
10
232.5
20
34.301
30
15
11
232.5
21
34.301
31
15
0
LINE
8
1
62
3
10
232.5
20
34.301
30
15
11
232.5
21
34.301
31
0
0
LINE
8
1
62
2
10
232.5
20
34.301
30
0
11
232.5
21
34.3
31
0
0
LINE
8
1
62
1
10
232.5
20
34.3
30
0
11
232.5
21
34.3
31
0
0
LINE
8
1
62
1
10
232.5
20
34.3
30
0
11
238.5
21
34.3
31
0
0
LINE
8
1
62
1
10
238.5
20
34.3
30
0
11
238.5
21
15.5
31
0
0
LINE
8
1
62
1
10
238.5
20
15.5
30
0
11
232.5
21
15.5
31
0
0
LINE
8
1
62
1
10
232.5
20
15.5
30
0
11
232.5
21
-2.5
31
0
0
LINE
8
1
62
1
10
232.5
20
-2.5
30
0
11
210.278
21
-2.5
31
0
0
LINE
8
1
62
1
10
210.278
20
-2.5
30
0
11
210.278
21
3.5
31
0
0
LINE
8
1
62
1
10
210.278
20
3.5
30
0
11
188.056
21
3.5
31
0
0
LINE
8
1
62
1
10
188.056
20
3.5
30
0
11
188.056
21
-2.5
31
0
0
LINE
8
1
62
1
10
188.056
20
-2.5
30
0
11
165.833
21
-2.5
31
0
0
LINE
8
1
62
1
10
165.833
20
-2.5
30
0
11
165.833
21
3.5
31
0
0
LINE
8
1
62
1
10
165.833
20
3.5
30
0
11
143.611
21
3.5
31
0
0
LINE
8
1
62
1
10
143.611
20
3.5
30
0
11
143.611
21
-2.5
31
0
0
LINE
8
1
62
1
10
143.611
20
-2.5
30
0
11
121.389
21
-2.5
31
0
0
LINE
8
1
62
1
10
121.389
20
-2.5
30
0
11
121.389
21
3.5
31
0
0
LINE
8
1
62
1
10
121.389
20
3.5
30
0
11
99.167
21
3.5
31
0
0
LINE
8
1
62
1
10
99.167
20
3.5
30
0
11
99.167
21
-2.5
31
0
0
LINE
8
1
62
1
10
99.167
20
-2.5
30
0
11
76.944
21
-2.5
31
0
0
LINE
8
1
62
1
10
76.944
20
-2.5
30
0
11
76.944
21
3.5
31
0
0
LINE
8
1
62
1
10
76.944
20
3.5
30
0
11
54.722
21
3.5
31
0
0
LINE
8
1
62
1
10
54.722
20
3.5
30
0
11
54.722
21
-2.5
31
0
0
LINE
8
1
62
1
10
54.722
20
-2.5
30
0
11
38.5
21
-2.5
31
0
0
LINE
8
1
62
1
10
38.5
20
-2.5
30
0
11
38.5
21
15.5
31
0
0
LINE
8
1
62
1
10
38.5
20
15.5
30
0
11
32.5
21
15.5
31
0
0
LINE
8
1
62
1
10
32.5
20
15.5
30
0
11
32.5
21
34.3
31
0
0
LINE
8
1
62
1
10
32.5
20
34.3
30
0
11
38.5
21
34.3
31
0
0
LINE
8
1
62
1
10
38.5
20
34.3
30
0
11
38.5
21
53.1
31
0
0
LINE
8
1
62
1
10
38.5
20
53.1
30
0
11
32.5
21
53.1
31
0
0
LINE
8
1
62
1
10
32.5
20
53.1
30
0
11
32.5
21
71.9
31
0
0
LINE
8
1
62
1
10
32.5
20
71.9
30
0
11
38.5
21
71.9
31
0
0
LINE
8
1
62
1
10
38.5
20
71.9
30
0
11
38.5
21
90.7
31
0
0
LINE
8
1
62
1
10
38.5
20
90.7
30
0
11
32.5
21
90.7
31
0
0
LINE
8
1
62
1
10
32.5
20
90.7
30
0
11
32.5
21
109.5
31
0
0
LINE
8
1
62
1
10
32.5
20
109.5
30
0
11
38.5
21
109.5
31
0
0
LINE
8
1
62
1
10
38.5
20
109.5
30
0
11
38.5
21
128.3
31
0
0
LINE
8
1
62
1
10
38.5
20
128.3
30
0
11
32.5
21
128.3
31
0
0
LINE
8
1
62
1
10
32.5
20
128.3
30
0
11
32.5
21
147.1
31
0
0
LINE
8
1
62
1
10
32.5
20
147.1
30
0
11
38.5
21
147.1
31
0
0
LINE
8
1
62
1
10
38.5
20
147.1
30
0
11
38.5
21
165.9
31
0
0
LINE
8
1
62
1
10
38.5
20
165.9
30
0
11
32.5
21
165.9
31
0
0
LINE
8
1
62
1
10
32.5
20
165.9
30
0
11
32.5
21
184.7
31
0
0
LINE
8
1
62
1
10
32.5
20
184.7
30
0
11
38.5
21
184.7
31
0
0
LINE
8
1
62
1
10
38.5
20
184.7
30
0
11
38.5
21
203.5
31
0
0
LINE
8
1
62
1
10
38.5
20
203.5
30
0
11
232.5
21
203.5
31
0
0
LINE
8
1
62
1
10
232.5
20
203.5
30
0
11
232.5
21
184.7
31
0
0
LINE
8
1
62
1
10
232.5
20
184.7
30
0
11
238.5
21
184.7
31
0
0
LINE
8
1
62
1
10
238.5
20
184.7
30
0
11
238.5
21
165.9
31
0
0
LINE
8
1
62
1
10
238.5
20
165.9
30
0
11
232.5
21
165.9
31
0
0
LINE
8
1
62
1
10
232.5
20
165.9
30
0
11
232.5
21
147.1
31
0
0
LINE
8
1
62
1
10
232.5
20
147.1
30
0
11
238.5
21
147.1
31
0
0
LINE
8
1
62
1
10
238.5
20
147.1
30
0
11
238.5
21
128.3
31
0
0
LINE
8
1
62
1
10
238.5
20
128.3
30
0
11
232.5
21
128.3
31
0
0
LINE
8
1
62
1
10
232.5
20
128.3
30
0
11
232.5
21
109.5
31
0
0
LINE
8
1
62
1
10
232.5
20
109.5
30
0
11
238.5
21
109.5
31
0
0
LINE
8
1
62
1
10
238.5
20
109.5
30
0
11
238.5
21
90.7
31
0
0
LINE
8
1
62
1
10
238.5
20
90.7
30
0
11
232.5
21
90.7
31
0
0
LINE
8
1
62
1
10
232.5
20
90.7
30
0
11
232.5
21
71.9
31
0
0
LINE
8
1
62
1
10
232.5
20
71.9
30
0
11
238.5
21
71.9
31
0
0
LINE
8
1
62
1
10
238.5
20
71.9
30
0
11
238.5
21
53.1
31
0
0
LINE
8
1
62
1
10
238.5
20
53.1
30
0
11
232.5
21
53.1
31
0
0
LINE
8
1
62
1
10
232.5
20
53.1
30
0
11
232.5
21
34.3
31
0
0
LINE
8
1
62
2
10
232.5
20
34.3
30
0
11
232.5
21
34.3
31
0
0
LINE
8
1
62
3
10
232.5
20
34.3
30
0
11
232.5
21
34.3
31
15
0
ENDSEC
0
EOF
