999
Generated by Autodesk CAM - http://cam.autodesk.com
0
SECTION
2
HEADER
9
$ACADVER
1
AC1006
9
$ANGBASE
50
0
9
$ANGDIR
70
0
0
ENDSEC
0
SECTION
2
BLOCKS
0
ENDSEC
9
$EXTMIN
10
-38.5
20
-2.5
30
0
9
$EXTMAX
10
38.5
20
203.5
30
15
0
SECTION
2
ENTITIES
0
LINE
8
1
62
3
10
-32.499
20
9
30
15
11
-32.499
21
9
31
15
0
LINE
8
1
62
3
10
-32.499
20
9
30
15
11
-32.499
21
9
31
0
0
LINE
8
1
62
2
10
-32.499
20
9
30
0
11
-32.5
21
9
31
0
0
LINE
8
1
62
1
10
-32.5
20
9
30
0
11
-32.5
21
9
31
0
0
LINE
8
1
62
1
10
-32.5
20
9
30
0
11
-32.5
21
3.5
31
0
0
LINE
8
1
62
1
10
-32.5
20
3.5
30
0
11
32.5
21
3.5
31
0
0
LINE
8
1
62
1
10
32.5
20
3.5
30
0
11
32.5
21
9
31
0
0
LINE
8
1
62
1
10
32.5
20
9
30
0
11
-32.5
21
9
31
0
0
LINE
8
1
62
2
10
-32.5
20
9
30
0
11
-32.5
21
9
31
0
0
LINE
8
1
62
3
10
-32.5
20
9
30
0
11
-32.5
21
9
31
5
0
LINE
8
1
62
3
10
-32.5
20
9
30
5
11
-38.5
21
9
31
5
0
LINE
8
1
62
3
10
-38.5
20
9
30
5
11
-38.5
21
9
31
0
0
LINE
8
1
62
2
10
-38.5
20
9
30
0
11
-38.5
21
9
31
0
0
LINE
8
1
62
1
10
-38.5
20
9
30
0
11
-38.5
21
15.5
31
0
0
LINE
8
1
62
1
10
-38.5
20
15.5
30
0
11
-32.5
21
15.5
31
0
0
LINE
8
1
62
1
10
-32.5
20
15.5
30
0
11
-32.5
21
34.3
31
0
0
LINE
8
1
62
1
10
-32.5
20
34.3
30
0
11
-38.5
21
34.3
31
0
0
LINE
8
1
62
1
10
-38.5
20
34.3
30
0
11
-38.5
21
53.1
31
0
0
LINE
8
1
62
1
10
-38.5
20
53.1
30
0
11
-32.5
21
53.1
31
0
0
LINE
8
1
62
1
10
-32.5
20
53.1
30
0
11
-32.5
21
71.9
31
0
0
LINE
8
1
62
1
10
-32.5
20
71.9
30
0
11
-38.5
21
71.9
31
0
0
LINE
8
1
62
1
10
-38.5
20
71.9
30
0
11
-38.5
21
90.7
31
0
0
LINE
8
1
62
1
10
-38.5
20
90.7
30
0
11
-32.5
21
90.7
31
0
0
LINE
8
1
62
1
10
-32.5
20
90.7
30
0
11
-32.5
21
109.5
31
0
0
LINE
8
1
62
1
10
-32.5
20
109.5
30
0
11
-38.5
21
109.5
31
0
0
LINE
8
1
62
1
10
-38.5
20
109.5
30
0
11
-38.5
21
128.3
31
0
0
LINE
8
1
62
1
10
-38.5
20
128.3
30
0
11
-32.5
21
128.3
31
0
0
LINE
8
1
62
1
10
-32.5
20
128.3
30
0
11
-32.5
21
147.1
31
0
0
LINE
8
1
62
1
10
-32.5
20
147.1
30
0
11
-38.5
21
147.1
31
0
0
LINE
8
1
62
1
10
-38.5
20
147.1
30
0
11
-38.5
21
165.9
31
0
0
LINE
8
1
62
1
10
-38.5
20
165.9
30
0
11
-32.5
21
165.9
31
0
0
LINE
8
1
62
1
10
-32.5
20
165.9
30
0
11
-32.5
21
184.7
31
0
0
LINE
8
1
62
1
10
-32.5
20
184.7
30
0
11
-38.5
21
184.7
31
0
0
LINE
8
1
62
1
10
-38.5
20
184.7
30
0
11
-38.5
21
203.5
31
0
0
LINE
8
1
62
1
10
-38.5
20
203.5
30
0
11
38.5
21
203.5
31
0
0
LINE
8
1
62
1
10
38.5
20
203.5
30
0
11
38.5
21
184.7
31
0
0
LINE
8
1
62
1
10
38.5
20
184.7
30
0
11
32.5
21
184.7
31
0
0
LINE
8
1
62
1
10
32.5
20
184.7
30
0
11
32.5
21
165.9
31
0
0
LINE
8
1
62
1
10
32.5
20
165.9
30
0
11
38.5
21
165.9
31
0
0
LINE
8
1
62
1
10
38.5
20
165.9
30
0
11
38.5
21
147.1
31
0
0
LINE
8
1
62
1
10
38.5
20
147.1
30
0
11
32.5
21
147.1
31
0
0
LINE
8
1
62
1
10
32.5
20
147.1
30
0
11
32.5
21
128.3
31
0
0
LINE
8
1
62
1
10
32.5
20
128.3
30
0
11
38.5
21
128.3
31
0
0
LINE
8
1
62
1
10
38.5
20
128.3
30
0
11
38.5
21
109.5
31
0
0
LINE
8
1
62
1
10
38.5
20
109.5
30
0
11
32.5
21
109.5
31
0
0
LINE
8
1
62
1
10
32.5
20
109.5
30
0
11
32.5
21
90.7
31
0
0
LINE
8
1
62
1
10
32.5
20
90.7
30
0
11
38.5
21
90.7
31
0
0
LINE
8
1
62
1
10
38.5
20
90.7
30
0
11
38.5
21
71.9
31
0
0
LINE
8
1
62
1
10
38.5
20
71.9
30
0
11
32.5
21
71.9
31
0
0
LINE
8
1
62
1
10
32.5
20
71.9
30
0
11
32.5
21
53.1
31
0
0
LINE
8
1
62
1
10
32.5
20
53.1
30
0
11
38.5
21
53.1
31
0
0
LINE
8
1
62
1
10
38.5
20
53.1
30
0
11
38.5
21
34.3
31
0
0
LINE
8
1
62
1
10
38.5
20
34.3
30
0
11
32.5
21
34.3
31
0
0
LINE
8
1
62
1
10
32.5
20
34.3
30
0
11
32.5
21
15.5
31
0
0
LINE
8
1
62
1
10
32.5
20
15.5
30
0
11
38.5
21
15.5
31
0
0
LINE
8
1
62
1
10
38.5
20
15.5
30
0
11
38.5
21
-2.5
31
0
0
LINE
8
1
62
1
10
38.5
20
-2.5
30
0
11
-38.5
21
-2.5
31
0
0
LINE
8
1
62
1
10
-38.5
20
-2.5
30
0
11
-38.5
21
9
31
0
0
LINE
8
1
62
2
10
-38.5
20
9
30
0
11
-38.5
21
9
31
0
0
LINE
8
1
62
3
10
-38.5
20
9
30
0
11
-38.5
21
9
31
15
0
ENDSEC
0
EOF
