999
Generated by Autodesk CAM - http://cam.autodesk.com
0
SECTION
2
HEADER
9
$ACADVER
1
AC1006
9
$ANGBASE
50
0
9
$ANGDIR
70
0
0
ENDSEC
0
SECTION
2
BLOCKS
0
ENDSEC
9
$EXTMIN
10
-2.5
20
-138.5
30
0
9
$EXTMAX
10
203.5
20
138.5
30
15
0
SECTION
2
ENTITIES
0
LINE
8
1
62
3
10
3.499
20
-110.278
30
15
11
3.499
21
-110.278
31
15
0
LINE
8
1
62
3
10
3.499
20
-110.278
30
15
11
3.499
21
-110.278
31
0
0
LINE
8
1
62
2
10
3.499
20
-110.278
30
0
11
3.5
21
-110.278
31
0
0
LINE
8
1
62
1
10
3.5
20
-110.278
30
0
11
3.5
21
-110.278
31
0
0
LINE
8
1
62
1
10
3.5
20
-110.278
30
0
11
3.5
21
-88.056
31
0
0
LINE
8
1
62
1
10
3.5
20
-88.056
30
0
11
-2.5
21
-88.056
31
0
0
LINE
8
1
62
1
10
-2.5
20
-88.056
30
0
11
-2.5
21
-65.833
31
0
0
LINE
8
1
62
1
10
-2.5
20
-65.833
30
0
11
3.5
21
-65.833
31
0
0
LINE
8
1
62
1
10
3.5
20
-65.833
30
0
11
3.5
21
-43.611
31
0
0
LINE
8
1
62
1
10
3.5
20
-43.611
30
0
11
-2.5
21
-43.611
31
0
0
LINE
8
1
62
1
10
-2.5
20
-43.611
30
0
11
-2.5
21
-21.389
31
0
0
LINE
8
1
62
1
10
-2.5
20
-21.389
30
0
11
3.5
21
-21.389
31
0
0
LINE
8
1
62
1
10
3.5
20
-21.389
30
0
11
3.5
21
0.833
31
0
0
LINE
8
1
62
1
10
3.5
20
0.833
30
0
11
-2.5
21
0.833
31
0
0
LINE
8
1
62
1
10
-2.5
20
0.833
30
0
11
-2.5
21
23.056
31
0
0
LINE
8
1
62
1
10
-2.5
20
23.056
30
0
11
3.5
21
23.056
31
0
0
LINE
8
1
62
1
10
3.5
20
23.056
30
0
11
3.5
21
45.278
31
0
0
LINE
8
1
62
1
10
3.5
20
45.278
30
0
11
-2.5
21
45.278
31
0
0
LINE
8
1
62
1
10
-2.5
20
45.278
30
0
11
-2.5
21
67.5
31
0
0
LINE
8
1
62
1
10
-2.5
20
67.5
30
0
11
3.5
21
67.5
31
0
0
LINE
8
1
62
1
10
3.5
20
67.5
30
0
11
3.5
21
89.722
31
0
0
LINE
8
1
62
1
10
3.5
20
89.722
30
0
11
-2.5
21
89.722
31
0
0
LINE
8
1
62
1
10
-2.5
20
89.722
30
0
11
-2.5
21
111.944
31
0
0
LINE
8
1
62
1
10
-2.5
20
111.944
30
0
11
3.5
21
111.944
31
0
0
LINE
8
1
62
1
10
3.5
20
111.944
30
0
11
3.5
21
132.5
31
0
0
LINE
8
1
62
1
10
3.5
20
132.5
30
0
11
-2.5
21
132.5
31
0
0
LINE
8
1
62
1
10
-2.5
20
132.5
30
0
11
-2.5
21
138.5
31
0
0
LINE
8
1
62
1
10
-2.5
20
138.5
30
0
11
15.5
21
138.5
31
0
0
LINE
8
1
62
1
10
15.5
20
138.5
30
0
11
15.5
21
132.5
31
0
0
LINE
8
1
62
1
10
15.5
20
132.5
30
0
11
34.3
21
132.5
31
0
0
LINE
8
1
62
1
10
34.3
20
132.5
30
0
11
34.3
21
138.5
31
0
0
LINE
8
1
62
1
10
34.3
20
138.5
30
0
11
53.1
21
138.5
31
0
0
LINE
8
1
62
1
10
53.1
20
138.5
30
0
11
53.1
21
132.5
31
0
0
LINE
8
1
62
1
10
53.1
20
132.5
30
0
11
71.9
21
132.5
31
0
0
LINE
8
1
62
1
10
71.9
20
132.5
30
0
11
71.9
21
138.5
31
0
0
LINE
8
1
62
1
10
71.9
20
138.5
30
0
11
90.7
21
138.5
31
0
0
LINE
8
1
62
1
10
90.7
20
138.5
30
0
11
90.7
21
132.5
31
0
0
LINE
8
1
62
1
10
90.7
20
132.5
30
0
11
109.5
21
132.5
31
0
0
LINE
8
1
62
1
10
109.5
20
132.5
30
0
11
109.5
21
138.5
31
0
0
LINE
8
1
62
1
10
109.5
20
138.5
30
0
11
128.3
21
138.5
31
0
0
LINE
8
1
62
1
10
128.3
20
138.5
30
0
11
128.3
21
132.5
31
0
0
LINE
8
1
62
1
10
128.3
20
132.5
30
0
11
147.1
21
132.5
31
0
0
LINE
8
1
62
1
10
147.1
20
132.5
30
0
11
147.1
21
138.5
31
0
0
LINE
8
1
62
1
10
147.1
20
138.5
30
0
11
165.9
21
138.5
31
0
0
LINE
8
1
62
1
10
165.9
20
138.5
30
0
11
165.9
21
132.5
31
0
0
LINE
8
1
62
1
10
165.9
20
132.5
30
0
11
184.7
21
132.5
31
0
0
LINE
8
1
62
1
10
184.7
20
132.5
30
0
11
184.7
21
138.5
31
0
0
LINE
8
1
62
1
10
184.7
20
138.5
30
0
11
203.5
21
138.5
31
0
0
LINE
8
1
62
1
10
203.5
20
138.5
30
0
11
203.5
21
-132.5
31
0
0
LINE
8
1
62
1
10
203.5
20
-132.5
30
0
11
184.7
21
-132.5
31
0
0
LINE
8
1
62
1
10
184.7
20
-132.5
30
0
11
184.7
21
-138.5
31
0
0
LINE
8
1
62
1
10
184.7
20
-138.5
30
0
11
165.9
21
-138.5
31
0
0
LINE
8
1
62
1
10
165.9
20
-138.5
30
0
11
165.9
21
-132.5
31
0
0
LINE
8
1
62
1
10
165.9
20
-132.5
30
0
11
147.1
21
-132.5
31
0
0
LINE
8
1
62
1
10
147.1
20
-132.5
30
0
11
147.1
21
-138.5
31
0
0
LINE
8
1
62
1
10
147.1
20
-138.5
30
0
11
128.3
21
-138.5
31
0
0
LINE
8
1
62
1
10
128.3
20
-138.5
30
0
11
128.3
21
-132.5
31
0
0
LINE
8
1
62
1
10
128.3
20
-132.5
30
0
11
109.5
21
-132.5
31
0
0
LINE
8
1
62
1
10
109.5
20
-132.5
30
0
11
109.5
21
-138.5
31
0
0
LINE
8
1
62
1
10
109.5
20
-138.5
30
0
11
90.7
21
-138.5
31
0
0
LINE
8
1
62
1
10
90.7
20
-138.5
30
0
11
90.7
21
-132.5
31
0
0
LINE
8
1
62
1
10
90.7
20
-132.5
30
0
11
71.9
21
-132.5
31
0
0
LINE
8
1
62
1
10
71.9
20
-132.5
30
0
11
71.9
21
-138.5
31
0
0
LINE
8
1
62
1
10
71.9
20
-138.5
30
0
11
53.1
21
-138.5
31
0
0
LINE
8
1
62
1
10
53.1
20
-138.5
30
0
11
53.1
21
-132.5
31
0
0
LINE
8
1
62
1
10
53.1
20
-132.5
30
0
11
34.3
21
-132.5
31
0
0
LINE
8
1
62
1
10
34.3
20
-132.5
30
0
11
34.3
21
-138.5
31
0
0
LINE
8
1
62
1
10
34.3
20
-138.5
30
0
11
15.5
21
-138.5
31
0
0
LINE
8
1
62
1
10
15.5
20
-138.5
30
0
11
15.5
21
-132.5
31
0
0
LINE
8
1
62
1
10
15.5
20
-132.5
30
0
11
-2.5
21
-132.5
31
0
0
LINE
8
1
62
1
10
-2.5
20
-132.5
30
0
11
-2.5
21
-110.278
31
0
0
LINE
8
1
62
1
10
-2.5
20
-110.278
30
0
11
3.5
21
-110.278
31
0
0
LINE
8
1
62
2
10
3.5
20
-110.278
30
0
11
3.5
21
-110.278
31
0
0
LINE
8
1
62
3
10
3.5
20
-110.278
30
0
11
3.5
21
-110.278
31
15
0
ENDSEC
0
EOF
